<svg version="1.1" id="Layer_1" xmlns="http://www.w3.org/2000/svg" xmlns:xlink="http://www.w3.org/1999/xlink" x="0px" y="0px"
	 width="100%" viewBox="0 0 5000 7499" enable-background="new 0 0 5000 7499" xml:space="preserve">
<path fill="#F6F0E7" opacity="1.000000" stroke="none" 
	d="
M4504.000000,7504.000000 
	C3146.542969,7504.000000 1789.086060,7504.000000 429.279175,7502.192383 
	C426.887177,7494.391602 426.808136,7488.398438 426.808075,7482.405762 
	C426.802551,6664.482422 426.802795,5846.558594 426.803162,5028.635254 
	C426.803162,5024.635742 426.576691,5020.618652 426.878143,5016.641602 
	C427.158447,5012.943848 428.003967,5009.288574 428.443726,5006.581055 
	C430.638550,5005.586914 431.203400,5005.228027 431.818909,5005.080078 
	C432.456787,5004.925781 433.143402,5004.969727 433.809113,5004.936523 
	C434.474640,5004.903320 435.140747,5004.858398 435.806580,5004.858398 
	C983.755310,5004.846680 1531.704102,5004.837891 2079.652832,5004.826660 
	C2081.652100,5004.826172 2083.652100,5004.802734 2085.650635,5004.753906 
	C2086.314209,5004.737793 2086.976807,5004.622559 2087.636230,5004.525879 
	C2088.282959,5004.431641 2089.007812,5004.452148 2089.544922,5004.149902 
	C2090.094971,5003.839355 2090.458984,5003.198730 2091.794189,5001.712891 
	C2091.913086,5000.227539 2092.294434,4997.686035 2092.294922,4995.144043 
	C2092.323486,4862.489746 2092.331543,4729.835449 2092.252197,4597.181152 
	C2092.250488,4594.109375 2091.230469,4591.038086 2090.767334,4588.427734 
	C2088.959961,4588.007812 2088.340820,4587.795898 2087.706543,4587.730957 
	C2086.382324,4587.596191 2085.050293,4587.463379 2083.721436,4587.463379 
	C1539.105713,4587.441895 994.490112,4587.432617 449.874451,4587.421387 
	C445.208221,4587.421387 440.541931,4587.418945 435.875854,4587.389648 
	C434.544098,4587.380859 433.205811,4587.334473 431.884888,4587.181641 
	C431.269409,4587.110352 430.656830,4586.800781 430.099701,4586.495117 
	C429.519775,4586.176758 429.008514,4585.732910 427.821625,4584.879883 
	C427.541504,4582.864258 426.875488,4580.310547 426.875702,4577.757324 
	C426.953217,3611.194824 427.075745,2644.632324 427.268463,1678.069946 
	C427.268677,1676.927490 428.332428,1675.785278 428.901001,1674.643799 
	C443.664764,1672.411865 592.341003,1671.786865 618.981140,1673.909912 
	C623.950928,1681.198608 629.266602,1688.843384 634.430542,1696.589478 
	C1336.904175,2750.315430 2039.365601,3804.049072 2741.830322,4857.780762 
	C3157.544922,5481.373535 3573.257324,6104.967285 3988.983398,6728.551758 
	C4157.491211,6981.311523 4326.041504,7234.042969 4494.500000,7486.835449 
	C4498.114258,7492.258789 4500.852539,7498.265625 4504.000000,7504.000000 
z"/>
<path fill="#F6F0E7" opacity="1.000000" stroke="none" 
	d="
M4.000006,1256.000000 
	C4.000000,979.916443 4.000000,703.832825 5.861187,425.633972 
	C10.386257,423.502899 13.050138,423.473175 15.714021,423.473175 
	C1154.263916,423.471069 2292.813721,423.476135 3431.363525,423.455200 
	C3485.504395,423.454193 3539.006348,429.445770 3591.957520,440.422607 
	C3678.665527,458.397125 3760.456299,489.409637 3837.319580,533.438232 
	C3896.587891,567.388062 3950.841797,608.066528 4000.034180,655.364685 
	C4048.740723,702.195068 4091.562012,753.981323 4127.043945,811.573425 
	C4170.729492,882.481201 4209.371094,956.173096 4246.288574,1030.769897 
	C4279.067871,1097.004761 4309.383301,1164.360840 4337.698242,1232.637939 
	C4374.441895,1321.238647 4407.173828,1411.300293 4435.932129,1502.765015 
	C4470.095215,1611.417847 4498.770996,1721.507568 4521.639160,1833.155762 
	C4538.486328,1915.406860 4552.523438,1998.092285 4563.251465,2081.303467 
	C4573.384766,2159.902344 4581.404297,2238.778564 4584.604004,2318.012207 
	C4587.236816,2383.198242 4588.911133,2448.425049 4590.662109,2513.643311 
	C4591.000488,2526.246826 4589.271484,2538.894043 4589.276367,2551.520752 
	C4589.300293,2617.488770 4585.871094,2683.290527 4581.045898,2749.063965 
	C4576.220703,2814.836426 4570.126953,2880.463379 4560.496094,2945.708740 
	C4552.329102,3001.034668 4544.778809,3056.500244 4534.623535,3111.473145 
	C4516.237305,3210.998291 4493.331543,3309.550049 4465.771973,3406.979736 
	C4432.233887,3525.546387 4392.437988,3641.953613 4346.229004,3756.196289 
	C4313.767090,3836.451660 4278.463379,3915.440186 4239.464355,3992.681152 
	C4211.871094,4047.331543 4182.277344,4100.990723 4152.793945,4154.662598 
	C4103.865723,4243.733398 4040.789795,4321.378906 3963.318848,4387.351074 
	C3885.389160,4453.713867 3798.322510,4504.072266 3701.990967,4538.546875 
	C3647.255127,4558.135742 3590.975830,4571.461914 3533.461670,4579.376465 
	C3491.858887,4585.101562 3449.899658,4587.129395 3407.948730,4587.287598 
	C3300.627930,4587.692383 3193.304688,4587.423340 3085.982422,4587.423340 
	C3079.327393,4587.423340 3072.672363,4587.423340 3066.630859,4587.423340 
	C3065.527832,4586.419922 3065.029541,4585.981934 3064.549072,4585.525391 
	C3064.066162,4585.067383 3063.589111,4584.601074 3063.130859,4584.118164 
	C3062.672363,4583.634766 3062.213867,4583.146484 3061.805664,4582.622070 
	C3061.398438,4582.098633 3061.043457,4581.533691 3060.684326,4580.975098 
	C3060.324463,4580.414062 3059.997070,4579.832520 3059.638672,4579.270508 
	C3059.280518,4578.708984 3058.906006,4578.156738 3058.529297,4577.606934 
	C3058.152832,4577.057129 3057.767334,4576.513672 3057.379883,4575.971191 
	C3056.992432,4575.428711 3056.580566,4574.903320 3056.210938,4574.348633 
	C3055.841309,4573.794922 3055.531250,4573.200684 3055.161621,4572.646973 
	C2321.371826,3471.968994 1587.579224,2371.292969 853.786011,1270.617065 
	C853.416321,1270.062378 853.029785,1269.518677 852.671875,1268.956543 
	C852.314148,1268.394653 852.009094,1267.797852 851.634094,1267.248413 
	C850.884766,1266.150146 850.098816,1265.077026 849.337402,1263.986938 
	C848.956482,1263.441650 848.585815,1262.888672 848.229431,1262.327026 
	C847.872253,1261.764526 847.567505,1261.166748 847.186890,1260.621460 
	C846.806274,1260.076050 846.368225,1259.569702 845.940430,1259.058716 
	C845.513123,1258.548462 845.080017,1258.041748 844.626099,1257.555298 
	C844.171509,1257.068237 843.734009,1256.546021 843.204102,1256.153931 
	C842.688782,1255.772949 842.065857,1255.537231 839.675232,1254.293335 
	C836.874084,1254.293335 832.237427,1254.293335 827.600708,1254.293335 
	C558.295044,1254.293335 288.989349,1254.283813 19.683683,1254.364746 
	C14.455630,1254.366211 9.227896,1255.431274 4.000006,1256.000000 
z"/>
<path fill="#010101" opacity="1.000000" stroke="none" 
	d="
M4.000006,1257.874756 
	C9.227896,1255.431274 14.455630,1254.366211 19.683683,1254.364746 
	C288.989349,1254.283813 558.295044,1254.293335 827.600708,1254.293335 
	C832.237427,1254.293335 836.874084,1254.293335 839.675232,1254.293335 
	C842.065857,1255.537231 842.688782,1255.772949 843.204102,1256.153931 
	C843.734009,1256.546021 844.171509,1257.068237 844.626099,1257.555298 
	C845.080017,1258.041748 845.513123,1258.548462 845.940430,1259.058716 
	C846.368225,1259.569702 846.806274,1260.076050 847.186890,1260.621460 
	C847.567505,1261.166748 847.872253,1261.764526 848.229431,1262.327026 
	C848.585815,1262.888672 848.956482,1263.441650 849.337402,1263.986938 
	C850.098816,1265.077026 850.884766,1266.150146 851.634094,1267.248413 
	C852.009094,1267.797852 852.314148,1268.394653 852.671875,1268.956543 
	C853.029785,1269.518677 853.416321,1270.062378 853.786011,1270.617065 
	C1587.579224,2371.292969 2321.371826,3471.968994 3055.161621,4572.646973 
	C3055.531250,4573.200684 3055.841309,4573.794922 3056.210938,4574.348633 
	C3056.580566,4574.903320 3056.992432,4575.428711 3057.379883,4575.971191 
	C3057.767334,4576.513672 3058.152832,4577.057129 3058.529297,4577.606934 
	C3058.906006,4578.156738 3059.280518,4578.708984 3059.638672,4579.270508 
	C3059.997070,4579.832520 3060.324463,4580.414062 3060.684326,4580.975098 
	C3061.043457,4581.533691 3061.398438,4582.098633 3061.805664,4582.622070 
	C3062.213867,4583.146484 3062.672363,4583.634766 3063.130859,4584.118164 
	C3063.589111,4584.601074 3064.066162,4585.067383 3064.549072,4585.525391 
	C3065.029541,4585.981934 3065.527832,4586.419922 3066.630859,4587.423340 
	C3072.672363,4587.423340 3079.327393,4587.423340 3085.982422,4587.423340 
	C3193.304688,4587.423340 3300.627930,4587.692383 3407.948730,4587.287598 
	C3449.899658,4587.129395 3491.858887,4585.101562 3533.461670,4579.376465 
	C3590.975830,4571.461914 3647.255127,4558.135742 3701.990967,4538.546875 
	C3798.322510,4504.072266 3885.389160,4453.713867 3963.318848,4387.351074 
	C4040.789795,4321.378906 4103.865723,4243.733398 4152.793945,4154.662598 
	C4182.277344,4100.990723 4211.871094,4047.331543 4239.464355,3992.681152 
	C4278.463379,3915.440186 4313.767090,3836.451660 4346.229004,3756.196289 
	C4392.437988,3641.953613 4432.233887,3525.546387 4465.771973,3406.979736 
	C4493.331543,3309.550049 4516.237305,3210.998291 4534.623535,3111.473145 
	C4544.778809,3056.500244 4552.329102,3001.034668 4560.496094,2945.708740 
	C4570.126953,2880.463379 4576.220703,2814.836426 4581.045898,2749.063965 
	C4585.871094,2683.290527 4589.300293,2617.488770 4589.276367,2551.520752 
	C4589.271484,2538.894043 4591.000488,2526.246826 4590.662109,2513.643311 
	C4588.911133,2448.425049 4587.236816,2383.198242 4584.604004,2318.012207 
	C4581.404297,2238.778564 4573.384766,2159.902344 4563.251465,2081.303467 
	C4552.523438,1998.092285 4538.486328,1915.406860 4521.639160,1833.155762 
	C4498.770996,1721.507568 4470.095215,1611.417847 4435.932129,1502.765015 
	C4407.173828,1411.300293 4374.441895,1321.238647 4337.698242,1232.637939 
	C4309.383301,1164.360840 4279.067871,1097.004761 4246.288574,1030.769897 
	C4209.371094,956.173096 4170.729492,882.481201 4127.043945,811.573425 
	C4091.562012,753.981323 4048.740723,702.195068 4000.034180,655.364685 
	C3950.841797,608.066528 3896.587891,567.388062 3837.319580,533.438232 
	C3760.456299,489.409637 3678.665527,458.397125 3591.957520,440.422607 
	C3539.006348,429.445770 3485.504395,423.454193 3431.363525,423.455200 
	C2292.813721,423.476135 1154.263916,423.471069 15.714021,423.473175 
	C13.050138,423.473175 10.386257,423.502899 5.861187,423.759338 
	C4.000000,284.062836 4.000000,144.125656 4.000000,4.000000 
	C1162.750244,4.000000 2321.500488,4.000000 3482.854492,5.311691 
	C3490.412842,6.884389 3495.367188,7.145396 3502.021973,7.591650 
	C3510.537354,7.770033 3517.352539,7.763168 3525.800781,8.156771 
	C3546.614258,10.791899 3565.783203,13.125947 3584.976562,15.241992 
	C3636.042969,20.872017 3686.281982,31.106081 3735.898926,44.028461 
	C3825.047607,67.246704 3910.771240,99.620087 3992.892334,141.642975 
	C4076.291748,184.320297 4153.974121,235.575180 4225.752930,295.598297 
	C4339.307129,390.554382 4433.098145,502.403687 4507.156250,630.540527 
	C4561.806641,725.098145 4612.243164,821.930542 4658.243164,920.990601 
	C4708.994629,1030.282959 4754.650879,1141.705200 4794.732422,1255.374634 
	C4840.150391,1384.174927 4878.853516,1514.975220 4909.637695,1648.027832 
	C4923.286133,1707.021729 4935.526367,1766.373779 4946.910645,1825.849487 
	C4956.171387,1874.228638 4964.126465,1922.904907 4970.970215,1971.686401 
	C4978.091309,2022.446655 4983.154297,2073.494873 4989.173828,2124.410645 
	C4994.961914,2173.370605 4999.155762,2222.448730 4999.967285,2273.596680 
	C4998.797363,2295.790283 5002.627930,2315.804932 5004.000000,2336.000000 
	C5004.000000,2454.750244 5004.000000,2573.500488 5002.642578,2695.094238 
	C5001.001953,2710.716309 5000.718750,2723.494629 5000.333984,2738.109375 
	C4999.740234,2754.596191 4999.869629,2769.299805 4998.631348,2783.887207 
	C4995.590820,2819.695557 4992.345215,2855.497559 4988.400879,2891.215576 
	C4982.847168,2941.507080 4977.604492,2991.867920 4970.346680,3041.926270 
	C4962.898438,3093.299805 4953.359863,3144.375732 4944.425293,3195.527588 
	C4928.154297,3288.686523 4906.586914,3380.708984 4882.204102,3472.005615 
	C4851.115723,3588.408936 4814.519531,3703.124023 4772.263672,3816.015869 
	C4736.083984,3912.674805 4696.472168,4007.895996 4652.143066,4101.069336 
	C4625.565430,4156.933105 4597.469727,4212.108398 4568.783203,4266.926270 
	C4533.904297,4333.578125 4497.631836,4399.479004 4454.983887,4461.648926 
	C4398.570312,4543.887207 4333.272461,4618.279785 4259.189453,4684.998535 
	C4200.609375,4737.755859 4137.503418,4784.455078 4070.033447,4825.171387 
	C4006.649170,4863.422363 3940.412598,4895.963867 3871.193359,4922.329102 
	C3822.027344,4941.055176 3771.928955,4956.758301 3720.818115,4969.316895 
	C3676.167969,4980.288086 3631.093262,4988.977539 3585.496094,4994.652832 
	C3545.863525,4999.585938 3506.153809,5004.055176 3466.104004,5004.150879 
	C3429.458252,5004.238770 3392.812744,5004.560059 3356.168457,5004.930176 
	C3353.193604,5004.960449 3349.525146,5003.357910 3346.705566,5007.800293 
	C3348.674072,5015.205078 3354.238770,5021.096191 3358.550049,5027.564941 
	C3727.520996,5581.187012 4096.556641,6134.766602 4465.589355,6688.347656 
	C4645.058105,6957.566406 4824.529785,7226.782715 5004.000000,7496.000000 
	C5004.000000,7498.657227 5004.000000,7501.314941 5004.000000,7504.000000 
	C4838.583008,7504.000000 4673.166016,7504.000000 4505.874512,7504.000000 
	C4500.852539,7498.265625 4498.114258,7492.258789 4494.500000,7486.835449 
	C4326.041504,7234.042969 4157.491211,6981.311523 3988.983398,6728.551758 
	C3573.257324,6104.967285 3157.544922,5481.373535 2741.830322,4857.780762 
	C2039.365601,3804.049072 1336.904175,2750.315430 634.430542,1696.589478 
	C629.266602,1688.843384 623.950928,1681.198608 618.981140,1673.909912 
	C592.341003,1671.786865 443.664764,1672.411865 428.901001,1674.643799 
	C428.332428,1675.785278 427.268677,1676.927490 427.268463,1678.069946 
	C427.075745,2644.632324 426.953217,3611.194824 426.875702,4577.757324 
	C426.875488,4580.310547 427.541504,4582.864258 427.821625,4584.879883 
	C429.008514,4585.732910 429.519775,4586.176758 430.099701,4586.495117 
	C430.656830,4586.800781 431.269409,4587.110352 431.884888,4587.181641 
	C433.205811,4587.334473 434.544098,4587.380859 435.875854,4587.389648 
	C440.541931,4587.418945 445.208221,4587.421387 449.874451,4587.421387 
	C994.490112,4587.432617 1539.105713,4587.441895 2083.721436,4587.463379 
	C2085.050293,4587.463379 2086.382324,4587.596191 2087.706543,4587.730957 
	C2088.340820,4587.795898 2088.959961,4588.007812 2090.767334,4588.427734 
	C2091.230469,4591.038086 2092.250488,4594.109375 2092.252197,4597.181152 
	C2092.331543,4729.835449 2092.323486,4862.489746 2092.294922,4995.144043 
	C2092.294434,4997.686035 2091.913086,5000.227539 2091.794189,5001.712891 
	C2090.458984,5003.198730 2090.094971,5003.839355 2089.544922,5004.149902 
	C2089.007812,5004.452148 2088.282959,5004.431641 2087.636230,5004.525879 
	C2086.976807,5004.622559 2086.314209,5004.737793 2085.650635,5004.753906 
	C2083.652100,5004.802734 2081.652100,5004.826172 2079.652832,5004.826660 
	C1531.704102,5004.837891 983.755310,5004.846680 435.806580,5004.858398 
	C435.140747,5004.858398 434.474640,5004.903320 433.809113,5004.936523 
	C433.143402,5004.969727 432.456787,5004.925781 431.818909,5005.080078 
	C431.203400,5005.228027 430.638550,5005.586914 428.443726,5006.581055 
	C428.003967,5009.288574 427.158447,5012.943848 426.878143,5016.641602 
	C426.576691,5020.618652 426.803162,5024.635742 426.803162,5028.635254 
	C426.802795,5846.558594 426.802551,6664.482422 426.808075,7482.405762 
	C426.808136,7488.398438 426.887177,7494.391602 427.464661,7502.192383 
	C286.703705,7504.000000 145.407410,7504.000000 4.000000,7504.000000 
	C4.000000,5422.583008 4.000000,3341.166260 4.000006,1257.874756 
z"/>
<path fill="#F6F0E7" opacity="1.000000" stroke="none" 
	d="
M5004.000000,7494.125488 
	C4824.529785,7226.782715 4645.058105,6957.566406 4465.589355,6688.347656 
	C4096.556641,6134.766602 3727.520996,5581.187012 3358.550049,5027.564941 
	C3354.238770,5021.096191 3348.674072,5015.205078 3346.705566,5007.800293 
	C3349.525146,5003.357910 3353.193604,5004.960449 3356.168457,5004.930176 
	C3392.812744,5004.560059 3429.458252,5004.238770 3466.104004,5004.150879 
	C3506.153809,5004.055176 3545.863525,4999.585938 3585.496094,4994.652832 
	C3631.093262,4988.977539 3676.167969,4980.288086 3720.818115,4969.316895 
	C3771.928955,4956.758301 3822.027344,4941.055176 3871.193359,4922.329102 
	C3940.412598,4895.963867 4006.649170,4863.422363 4070.033447,4825.171387 
	C4137.503418,4784.455078 4200.609375,4737.755859 4259.189453,4684.998535 
	C4333.272461,4618.279785 4398.570312,4543.887207 4454.983887,4461.648926 
	C4497.631836,4399.479004 4533.904297,4333.578125 4568.783203,4266.926270 
	C4597.469727,4212.108398 4625.565430,4156.933105 4652.143066,4101.069336 
	C4696.472168,4007.895996 4736.083984,3912.674805 4772.263672,3816.015869 
	C4814.519531,3703.124023 4851.115723,3588.408936 4882.204102,3472.005615 
	C4906.586914,3380.708984 4928.154297,3288.686523 4944.425293,3195.527588 
	C4953.359863,3144.375732 4962.898438,3093.299805 4970.346680,3041.926270 
	C4977.604492,2991.867920 4982.847168,2941.507080 4988.400879,2891.215576 
	C4992.345215,2855.497559 4995.590820,2819.695557 4998.631348,2783.887207 
	C4999.869629,2769.299805 4999.740234,2754.596191 5001.215820,2737.915527 
	C5002.198730,2735.885742 5004.000000,2736.000000 5004.000000,2736.000000 
	C5004.000000,4321.416992 5004.000000,5906.833984 5004.000000,7494.125488 
z"/>
<path fill="#FEFEFE" opacity="1.000000" stroke="none" 
	d="
M5000.376953,2271.754639 
	C4999.155762,2222.448730 4994.961914,2173.370605 4989.173828,2124.410645 
	C4983.154297,2073.494873 4978.091309,2022.446655 4970.970215,1971.686401 
	C4964.126465,1922.904907 4956.171387,1874.228638 4946.910645,1825.849487 
	C4935.526367,1766.373779 4923.286133,1707.021729 4909.637695,1648.027832 
	C4878.853516,1514.975220 4840.150391,1384.174927 4794.732422,1255.374634 
	C4754.650879,1141.705200 4708.994629,1030.282959 4658.243164,920.990601 
	C4612.243164,821.930542 4561.806641,725.098145 4507.156250,630.540527 
	C4433.098145,502.403687 4339.307129,390.554382 4225.752930,295.598297 
	C4153.974121,235.575180 4076.291748,184.320297 3992.892334,141.642975 
	C3910.771240,99.620087 3825.047607,67.246704 3735.898926,44.028461 
	C3686.281982,31.106081 3636.042969,20.872017 3584.976562,15.241992 
	C3565.783203,13.125947 3546.614258,10.791899 3525.728516,7.218938 
	C3524.022949,5.880639 3524.000000,4.000000 3524.000000,4.000000 
	C4017.102783,4.000000 4510.205566,4.000000 5004.000000,4.000000 
	C5004.000000,758.750122 5004.000000,1513.500366 5003.077148,2270.315430 
	C5002.154297,2272.380127 5000.376953,2271.754639 5000.376953,2271.754639 
z"/>
<path fill="#949292" opacity="1.000000" stroke="none" 
	d="
M4999.967285,2273.596680 
	C5000.376953,2271.754639 5002.154297,2272.380127 5003.077148,2272.189941 
	C5004.000000,2292.088379 5004.000000,2312.176758 5004.000000,2334.132568 
	C5002.627930,2315.804932 4998.797363,2295.790283 4999.967285,2273.596680 
z"/>
<path fill="#939494" opacity="1.000000" stroke="none" 
	d="
M5004.000000,2734.183594 
	C5004.000000,2736.000000 5002.198730,2735.885742 5001.316895,2736.079590 
	C5000.718750,2723.494629 5001.001953,2710.716309 5002.642578,2696.968750 
	C5004.000000,2708.122314 5004.000000,2720.244873 5004.000000,2734.183594 
z"/>
<path fill="#D3BFBF" opacity="1.000000" stroke="none" 
	d="
M3522.285156,4.000000 
	C3524.000000,4.000000 3524.022949,5.880639 3524.095215,6.818471 
	C3517.352539,7.763168 3510.537354,7.770033 3501.936279,6.740600 
	C3500.150146,5.704300 3500.000000,4.000000 3500.000000,4.000000 
	C3506.856689,4.000000 3513.713623,4.000000 3522.285156,4.000000 
z"/>
<path fill="#767575" opacity="1.000000" stroke="none" 
	d="
M3498.399902,4.000000 
	C3500.000000,4.000000 3500.150146,5.704300 3500.235840,6.555351 
	C3495.367188,7.145396 3490.412842,6.884389 3484.729004,5.311691 
	C3488.266602,4.000000 3492.533203,4.000000 3498.399902,4.000000 
z"/>
</svg>